<svg width="213" height="75" viewBox="0 0 213 75" fill="none" xmlns="http://www.w3.org/2000/svg">
<path d="M76.1185 15.9024V8.73438C76.1185 5.56737 73.5511 3 70.3841 3H8.73952C5.5725 3 3.00513 5.56737 3.00513 8.73438V48.8751C3.00513 52.0421 5.57251 54.6094 8.73952 54.6094H18.7747L15.4209 70.2603C15.1278 71.6282 16.7671 72.563 17.7951 71.6141L33.1106 57.4766H70.3841C73.5511 57.4766 76.1185 54.9093 76.1185 51.7422V48.8751" stroke="url(#paint0_linear)" stroke-width="4.30079"/>
<path d="M16.0364 31.3906C16.0364 28.7344 16.6249 26.6354 17.802 25.0938C18.9895 23.5521 20.6145 22.7812 22.677 22.7812C24.4895 22.7812 25.9322 23.474 27.0051 24.8594L27.302 23.0938H31.2708V46.5H26.7395V38.5469C25.6978 39.724 24.3333 40.3125 22.6458 40.3125C20.6353 40.3125 19.0312 39.5312 17.8333 37.9688C16.6353 36.4062 16.0364 34.2135 16.0364 31.3906ZM20.552 31.7188C20.552 33.3333 20.8333 34.5625 21.3958 35.4062C21.9687 36.25 22.7708 36.6719 23.802 36.6719C25.1874 36.6719 26.1666 36.1198 26.7395 35.0156V28.0312C26.177 26.9688 25.2083 26.4375 23.8333 26.4375C22.7916 26.4375 21.9843 26.8594 21.4114 27.7031C20.8385 28.5469 20.552 29.8854 20.552 31.7188ZM44.9583 38.2812C43.8437 39.6354 42.302 40.3125 40.3333 40.3125C38.5208 40.3125 37.1353 39.7917 36.177 38.75C35.2291 37.7083 34.7447 36.1823 34.7239 34.1719V23.0938H39.2395V34.0156C39.2395 35.776 40.0416 36.6562 41.6458 36.6562C43.177 36.6562 44.2291 36.125 44.802 35.0625V23.0938H49.3333V40H45.0833L44.9583 38.2812ZM60.5208 40.3125C58.0416 40.3125 56.0208 39.5521 54.4583 38.0312C52.9062 36.5104 52.1301 34.4844 52.1301 31.9531V31.5156C52.1301 29.8177 52.4583 28.3021 53.1145 26.9688C53.7708 25.625 54.6978 24.5938 55.8958 23.875C57.1041 23.1458 58.4791 22.7812 60.0208 22.7812C62.3333 22.7812 64.151 23.5104 65.4739 24.9688C66.8072 26.4271 67.4739 28.4948 67.4739 31.1719V33.0156H56.7083C56.8541 34.1198 57.2916 35.0052 58.0208 35.6719C58.7603 36.3385 59.6926 36.6719 60.8176 36.6719C62.5572 36.6719 63.9166 36.0417 64.8958 34.7812L67.1145 37.2656C66.4374 38.224 65.5208 38.974 64.3645 39.5156C63.2083 40.0469 61.927 40.3125 60.5208 40.3125ZM60.0051 26.4375C59.1093 26.4375 58.3801 26.7396 57.8176 27.3438C57.2655 27.9479 56.9114 28.8125 56.7551 29.9375H63.0364V29.5781C63.0155 28.5781 62.7447 27.8073 62.2239 27.2656C61.703 26.7135 60.9635 26.4375 60.0051 26.4375ZM79.2083 35.3281C79.2083 34.776 78.9322 34.3438 78.3801 34.0312C77.8385 33.7083 76.9635 33.4219 75.7551 33.1719C71.7343 32.3281 69.7239 30.6198 69.7239 28.0469C69.7239 26.5469 70.3437 25.2969 71.5833 24.2969C72.8333 23.2865 74.4635 22.7812 76.4739 22.7812C78.6197 22.7812 80.3333 23.2865 81.6145 24.2969C82.9062 25.3073 83.552 26.6198 83.552 28.2344H79.0364C79.0364 27.5885 78.828 27.0573 78.4114 26.6406C77.9947 26.2135 77.3437 26 76.4583 26C75.6978 26 75.1093 26.1719 74.6926 26.5156C74.276 26.8594 74.0676 27.2969 74.0676 27.8281C74.0676 28.3281 74.302 28.7344 74.7708 29.0469C75.2499 29.349 76.052 29.6146 77.177 29.8438C78.302 30.0625 79.2499 30.3125 80.0208 30.5938C82.4062 31.4688 83.5989 32.9844 83.5989 35.1406C83.5989 36.6823 82.9374 37.9323 81.6145 38.8906C80.2916 39.8385 78.5833 40.3125 76.4895 40.3125C75.0728 40.3125 73.8124 40.0625 72.7083 39.5625C71.6145 39.0521 70.7551 38.3594 70.1301 37.4844C69.5051 36.599 69.1926 35.6458 69.1926 34.625H73.4739C73.5155 35.4271 73.8124 36.0417 74.3645 36.4688C74.9166 36.8958 75.6562 37.1094 76.5833 37.1094C77.4478 37.1094 78.0989 36.9479 78.5364 36.625C78.9843 36.2917 79.2083 35.8594 79.2083 35.3281ZM91.927 18.9375V23.0938H94.8176V26.4062H91.927V34.8438C91.927 35.4688 92.0468 35.9167 92.2864 36.1875C92.526 36.4583 92.9843 36.5938 93.6614 36.5938C94.1614 36.5938 94.6041 36.5573 94.9895 36.4844V39.9062C94.1041 40.1771 93.1926 40.3125 92.2551 40.3125C89.0885 40.3125 87.4739 38.7135 87.4114 35.5156V26.4062H84.9426V23.0938H87.4114V18.9375H91.927ZM102.099 40H97.5676V23.0938H102.099V40ZM97.302 18.7188C97.302 18.0417 97.526 17.4844 97.9739 17.0469C98.4322 16.6094 99.052 16.3906 99.8333 16.3906C100.604 16.3906 101.219 16.6094 101.677 17.0469C102.135 17.4844 102.365 18.0417 102.365 18.7188C102.365 19.4062 102.13 19.9688 101.661 20.4062C101.203 20.8438 100.594 21.0625 99.8333 21.0625C99.0728 21.0625 98.4583 20.8438 97.9895 20.4062C97.5312 19.9688 97.302 19.4062 97.302 18.7188ZM105.13 31.3906C105.13 29.7135 105.453 28.2188 106.099 26.9062C106.745 25.5938 107.672 24.5781 108.88 23.8594C110.099 23.1406 111.51 22.7812 113.115 22.7812C115.396 22.7812 117.255 23.4792 118.693 24.875C120.141 26.2708 120.948 28.1667 121.115 30.5625L121.146 31.7188C121.146 34.3125 120.422 36.3958 118.974 37.9688C117.526 39.5312 115.583 40.3125 113.146 40.3125C110.708 40.3125 108.76 39.5312 107.302 37.9688C105.854 36.4062 105.13 34.2812 105.13 31.5938V31.3906ZM109.646 31.7188C109.646 33.3229 109.948 34.5521 110.552 35.4062C111.156 36.25 112.021 36.6719 113.146 36.6719C114.24 36.6719 115.094 36.2552 115.708 35.4219C116.323 34.5781 116.63 33.2344 116.63 31.3906C116.63 29.8177 116.323 28.599 115.708 27.7344C115.094 26.8698 114.229 26.4375 113.115 26.4375C112.01 26.4375 111.156 26.8698 110.552 27.7344C109.948 28.5885 109.646 29.9167 109.646 31.7188ZM128.083 23.0938L128.224 25.0469C129.432 23.5365 131.052 22.7812 133.083 22.7812C134.875 22.7812 136.208 23.3073 137.083 24.3594C137.958 25.4115 138.406 26.9844 138.427 29.0781V40H133.911V29.1875C133.911 28.2292 133.703 27.5365 133.286 27.1094C132.87 26.6719 132.177 26.4531 131.208 26.4531C129.937 26.4531 128.984 26.9948 128.349 28.0781V40H123.833V23.0938H128.083ZM149.646 40.3125C147.167 40.3125 145.146 39.5521 143.583 38.0312C142.031 36.5104 141.255 34.4844 141.255 31.9531V31.5156C141.255 29.8177 141.583 28.3021 142.24 26.9688C142.896 25.625 143.823 24.5938 145.021 23.875C146.229 23.1458 147.604 22.7812 149.146 22.7812C151.458 22.7812 153.276 23.5104 154.599 24.9688C155.932 26.4271 156.599 28.4948 156.599 31.1719V33.0156H145.833C145.979 34.1198 146.417 35.0052 147.146 35.6719C147.885 36.3385 148.818 36.6719 149.943 36.6719C151.682 36.6719 153.042 36.0417 154.021 34.7812L156.24 37.2656C155.562 38.224 154.646 38.974 153.49 39.5156C152.333 40.0469 151.052 40.3125 149.646 40.3125ZM149.13 26.4375C148.234 26.4375 147.505 26.7396 146.943 27.3438C146.391 27.9479 146.036 28.8125 145.88 29.9375H152.161V29.5781C152.141 28.5781 151.87 27.8073 151.349 27.2656C150.828 26.7135 150.088 26.4375 149.13 26.4375Z" fill="url(#paint1_linear)"/>
<path d="M159.411 37.7812C159.411 37.0625 159.651 36.4792 160.13 36.0312C160.62 35.5833 161.229 35.3594 161.958 35.3594C162.698 35.3594 163.307 35.5833 163.786 36.0312C164.276 36.4792 164.521 37.0625 164.521 37.7812C164.521 38.4896 164.281 39.0677 163.802 39.5156C163.323 39.9531 162.708 40.1719 161.958 40.1719C161.219 40.1719 160.609 39.9531 160.13 39.5156C159.651 39.0677 159.411 38.4896 159.411 37.7812ZM172.724 23.0938L172.865 24.9844C174.062 23.5156 175.682 22.7812 177.724 22.7812C179.901 22.7812 181.396 23.6406 182.208 25.3594C183.396 23.6406 185.088 22.7812 187.286 22.7812C189.12 22.7812 190.484 23.3177 191.38 24.3906C192.276 25.4531 192.724 27.0573 192.724 29.2031V40H188.193V29.2188C188.193 28.2604 188.005 27.5625 187.63 27.125C187.255 26.6771 186.594 26.4531 185.646 26.4531C184.292 26.4531 183.354 27.099 182.833 28.3906L182.849 40H178.333V29.2344C178.333 28.2552 178.141 27.5469 177.755 27.1094C177.37 26.6719 176.713 26.4531 175.786 26.4531C174.505 26.4531 173.578 26.9844 173.005 28.0469V40H168.49V23.0938H172.724ZM203.99 40.3125C201.51 40.3125 199.49 39.5521 197.927 38.0312C196.375 36.5104 195.599 34.4844 195.599 31.9531V31.5156C195.599 29.8177 195.927 28.3021 196.583 26.9688C197.24 25.625 198.167 24.5938 199.365 23.875C200.573 23.1458 201.948 22.7812 203.49 22.7812C205.802 22.7812 207.62 23.5104 208.943 24.9688C210.276 26.4271 210.943 28.4948 210.943 31.1719V33.0156H200.177C200.323 34.1198 200.76 35.0052 201.49 35.6719C202.229 36.3385 203.161 36.6719 204.286 36.6719C206.026 36.6719 207.385 36.0417 208.365 34.7812L210.583 37.2656C209.906 38.224 208.99 38.974 207.833 39.5156C206.677 40.0469 205.396 40.3125 203.99 40.3125ZM203.474 26.4375C202.578 26.4375 201.849 26.7396 201.286 27.3438C200.734 27.9479 200.38 28.8125 200.224 29.9375H206.505V29.5781C206.484 28.5781 206.213 27.8073 205.693 27.2656C205.172 26.7135 204.432 26.4375 203.474 26.4375Z" fill="#29292E"/>
<defs>
<linearGradient id="paint0_linear" x1="3.00513" y1="3" x2="63.2161" y2="77.547" gradientUnits="userSpaceOnUse">
<stop stop-color="#014F86"/>
<stop offset="1" stop-color="#FF59F8"/>
</linearGradient>
<linearGradient id="paint1_linear" x1="16.0364" y1="16.3906" x2="25.57" y2="68.3942" gradientUnits="userSpaceOnUse">
<stop stop-color="#014F86"/>
<stop offset="1" stop-color="#FF59F8"/>
</linearGradient>
</defs>
</svg>
