<svg width="720" height="180" viewBox="0 0 720 180" fill="none" xmlns="http://www.w3.org/2000/svg">
<rect width="720" height="180" fill="url(#paint0_linear)"/>
<path d="M328.113 68.9024V61.7344C328.113 58.5674 325.546 56 322.379 56H260.734C257.567 56 255 58.5674 255 61.7344V101.875C255 105.042 257.567 107.609 260.734 107.609H270.769L267.416 123.26C267.123 124.628 268.762 125.563 269.79 124.614L285.105 110.477H322.379C325.546 110.477 328.113 107.909 328.113 104.742V101.875" stroke="#F8F8F8" stroke-width="4.30079"/>
<path d="M268.031 84.3906C268.031 81.7344 268.62 79.6354 269.797 78.0938C270.984 76.5521 272.609 75.7812 274.672 75.7812C276.484 75.7812 277.927 76.474 279 77.8594L279.297 76.0938H283.266V99.5H278.734V91.5469C277.693 92.724 276.328 93.3125 274.641 93.3125C272.63 93.3125 271.026 92.5312 269.828 90.9688C268.63 89.4062 268.031 87.2135 268.031 84.3906ZM272.547 84.7188C272.547 86.3333 272.828 87.5625 273.391 88.4062C273.964 89.25 274.766 89.6719 275.797 89.6719C277.182 89.6719 278.161 89.1198 278.734 88.0156V81.0312C278.172 79.9688 277.203 79.4375 275.828 79.4375C274.786 79.4375 273.979 79.8594 273.406 80.7031C272.833 81.5469 272.547 82.8854 272.547 84.7188ZM296.953 91.2812C295.839 92.6354 294.297 93.3125 292.328 93.3125C290.516 93.3125 289.13 92.7917 288.172 91.75C287.224 90.7083 286.74 89.1823 286.719 87.1719V76.0938H291.234V87.0156C291.234 88.776 292.036 89.6562 293.641 89.6562C295.172 89.6562 296.224 89.125 296.797 88.0625V76.0938H301.328V93H297.078L296.953 91.2812ZM312.516 93.3125C310.036 93.3125 308.016 92.5521 306.453 91.0312C304.901 89.5104 304.125 87.4844 304.125 84.9531V84.5156C304.125 82.8177 304.453 81.3021 305.109 79.9688C305.766 78.625 306.693 77.5938 307.891 76.875C309.099 76.1458 310.474 75.7812 312.016 75.7812C314.328 75.7812 316.146 76.5104 317.469 77.9688C318.802 79.4271 319.469 81.4948 319.469 84.1719V86.0156H308.703C308.849 87.1198 309.286 88.0052 310.016 88.6719C310.755 89.3385 311.688 89.6719 312.812 89.6719C314.552 89.6719 315.911 89.0417 316.891 87.7812L319.109 90.2656C318.432 91.224 317.516 91.974 316.359 92.5156C315.203 93.0469 313.922 93.3125 312.516 93.3125ZM312 79.4375C311.104 79.4375 310.375 79.7396 309.812 80.3438C309.26 80.9479 308.906 81.8125 308.75 82.9375H315.031V82.5781C315.01 81.5781 314.74 80.8073 314.219 80.2656C313.698 79.7135 312.958 79.4375 312 79.4375ZM331.203 88.3281C331.203 87.776 330.927 87.3438 330.375 87.0312C329.833 86.7083 328.958 86.4219 327.75 86.1719C323.729 85.3281 321.719 83.6198 321.719 81.0469C321.719 79.5469 322.339 78.2969 323.578 77.2969C324.828 76.2865 326.458 75.7812 328.469 75.7812C330.615 75.7812 332.328 76.2865 333.609 77.2969C334.901 78.3073 335.547 79.6198 335.547 81.2344H331.031C331.031 80.5885 330.823 80.0573 330.406 79.6406C329.99 79.2135 329.339 79 328.453 79C327.693 79 327.104 79.1719 326.688 79.5156C326.271 79.8594 326.062 80.2969 326.062 80.8281C326.062 81.3281 326.297 81.7344 326.766 82.0469C327.245 82.349 328.047 82.6146 329.172 82.8438C330.297 83.0625 331.245 83.3125 332.016 83.5938C334.401 84.4688 335.594 85.9844 335.594 88.1406C335.594 89.6823 334.932 90.9323 333.609 91.8906C332.286 92.8385 330.578 93.3125 328.484 93.3125C327.068 93.3125 325.807 93.0625 324.703 92.5625C323.609 92.0521 322.75 91.3594 322.125 90.4844C321.5 89.599 321.188 88.6458 321.188 87.625H325.469C325.51 88.4271 325.807 89.0417 326.359 89.4688C326.911 89.8958 327.651 90.1094 328.578 90.1094C329.443 90.1094 330.094 89.9479 330.531 89.625C330.979 89.2917 331.203 88.8594 331.203 88.3281ZM343.922 71.9375V76.0938H346.812V79.4062H343.922V87.8438C343.922 88.4688 344.042 88.9167 344.281 89.1875C344.521 89.4583 344.979 89.5938 345.656 89.5938C346.156 89.5938 346.599 89.5573 346.984 89.4844V92.9062C346.099 93.1771 345.188 93.3125 344.25 93.3125C341.083 93.3125 339.469 91.7135 339.406 88.5156V79.4062H336.938V76.0938H339.406V71.9375H343.922ZM354.094 93H349.562V76.0938H354.094V93ZM349.297 71.7188C349.297 71.0417 349.521 70.4844 349.969 70.0469C350.427 69.6094 351.047 69.3906 351.828 69.3906C352.599 69.3906 353.214 69.6094 353.672 70.0469C354.13 70.4844 354.359 71.0417 354.359 71.7188C354.359 72.4062 354.125 72.9688 353.656 73.4062C353.198 73.8438 352.589 74.0625 351.828 74.0625C351.068 74.0625 350.453 73.8438 349.984 73.4062C349.526 72.9688 349.297 72.4062 349.297 71.7188ZM357.125 84.3906C357.125 82.7135 357.448 81.2188 358.094 79.9062C358.74 78.5938 359.667 77.5781 360.875 76.8594C362.094 76.1406 363.505 75.7812 365.109 75.7812C367.391 75.7812 369.25 76.4792 370.688 77.875C372.135 79.2708 372.943 81.1667 373.109 83.5625L373.141 84.7188C373.141 87.3125 372.417 89.3958 370.969 90.9688C369.521 92.5312 367.578 93.3125 365.141 93.3125C362.703 93.3125 360.755 92.5312 359.297 90.9688C357.849 89.4062 357.125 87.2812 357.125 84.5938V84.3906ZM361.641 84.7188C361.641 86.3229 361.943 87.5521 362.547 88.4062C363.151 89.25 364.016 89.6719 365.141 89.6719C366.234 89.6719 367.089 89.2552 367.703 88.4219C368.318 87.5781 368.625 86.2344 368.625 84.3906C368.625 82.8177 368.318 81.599 367.703 80.7344C367.089 79.8698 366.224 79.4375 365.109 79.4375C364.005 79.4375 363.151 79.8698 362.547 80.7344C361.943 81.5885 361.641 82.9167 361.641 84.7188ZM380.078 76.0938L380.219 78.0469C381.427 76.5365 383.047 75.7812 385.078 75.7812C386.87 75.7812 388.203 76.3073 389.078 77.3594C389.953 78.4115 390.401 79.9844 390.422 82.0781V93H385.906V82.1875C385.906 81.2292 385.698 80.5365 385.281 80.1094C384.865 79.6719 384.172 79.4531 383.203 79.4531C381.932 79.4531 380.979 79.9948 380.344 81.0781V93H375.828V76.0938H380.078ZM401.641 93.3125C399.161 93.3125 397.141 92.5521 395.578 91.0312C394.026 89.5104 393.25 87.4844 393.25 84.9531V84.5156C393.25 82.8177 393.578 81.3021 394.234 79.9688C394.891 78.625 395.818 77.5938 397.016 76.875C398.224 76.1458 399.599 75.7812 401.141 75.7812C403.453 75.7812 405.271 76.5104 406.594 77.9688C407.927 79.4271 408.594 81.4948 408.594 84.1719V86.0156H397.828C397.974 87.1198 398.411 88.0052 399.141 88.6719C399.88 89.3385 400.812 89.6719 401.938 89.6719C403.677 89.6719 405.036 89.0417 406.016 87.7812L408.234 90.2656C407.557 91.224 406.641 91.974 405.484 92.5156C404.328 93.0469 403.047 93.3125 401.641 93.3125ZM401.125 79.4375C400.229 79.4375 399.5 79.7396 398.938 80.3438C398.385 80.9479 398.031 81.8125 397.875 82.9375H404.156V82.5781C404.135 81.5781 403.865 80.8073 403.344 80.2656C402.823 79.7135 402.083 79.4375 401.125 79.4375ZM411.406 90.7812C411.406 90.0625 411.646 89.4792 412.125 89.0312C412.615 88.5833 413.224 88.3594 413.953 88.3594C414.693 88.3594 415.302 88.5833 415.781 89.0312C416.271 89.4792 416.516 90.0625 416.516 90.7812C416.516 91.4896 416.276 92.0677 415.797 92.5156C415.318 92.9531 414.703 93.1719 413.953 93.1719C413.214 93.1719 412.604 92.9531 412.125 92.5156C411.646 92.0677 411.406 91.4896 411.406 90.7812ZM424.719 76.0938L424.859 77.9844C426.057 76.5156 427.677 75.7812 429.719 75.7812C431.896 75.7812 433.391 76.6406 434.203 78.3594C435.391 76.6406 437.083 75.7812 439.281 75.7812C441.115 75.7812 442.479 76.3177 443.375 77.3906C444.271 78.4531 444.719 80.0573 444.719 82.2031V93H440.188V82.2188C440.188 81.2604 440 80.5625 439.625 80.125C439.25 79.6771 438.589 79.4531 437.641 79.4531C436.286 79.4531 435.349 80.099 434.828 81.3906L434.844 93H430.328V82.2344C430.328 81.2552 430.135 80.5469 429.75 80.1094C429.365 79.6719 428.708 79.4531 427.781 79.4531C426.5 79.4531 425.573 79.9844 425 81.0469V93H420.484V76.0938H424.719ZM455.984 93.3125C453.505 93.3125 451.484 92.5521 449.922 91.0312C448.37 89.5104 447.594 87.4844 447.594 84.9531V84.5156C447.594 82.8177 447.922 81.3021 448.578 79.9688C449.234 78.625 450.161 77.5938 451.359 76.875C452.568 76.1458 453.943 75.7812 455.484 75.7812C457.797 75.7812 459.615 76.5104 460.938 77.9688C462.271 79.4271 462.938 81.4948 462.938 84.1719V86.0156H452.172C452.318 87.1198 452.755 88.0052 453.484 88.6719C454.224 89.3385 455.156 89.6719 456.281 89.6719C458.021 89.6719 459.38 89.0417 460.359 87.7812L462.578 90.2656C461.901 91.224 460.984 91.974 459.828 92.5156C458.672 93.0469 457.391 93.3125 455.984 93.3125ZM455.469 79.4375C454.573 79.4375 453.844 79.7396 453.281 80.3438C452.729 80.9479 452.375 81.8125 452.219 82.9375H458.5V82.5781C458.479 81.5781 458.208 80.8073 457.688 80.2656C457.167 79.7135 456.427 79.4375 455.469 79.4375Z" fill="#F8F8F8"/>
<defs>
<linearGradient id="paint0_linear" x1="0" y1="0" x2="65.7436" y2="307.27" gradientUnits="userSpaceOnUse">
<stop stop-color="#014F86"/>
<stop offset="1" stop-color="#FF59F8"/>
</linearGradient>
</defs>
</svg>
